<svg class="thumb" width="5000" height="5000" viewBox="0,0,600,600" xmlns="http://www.w3.org/2000/svg" xmlns:inkscape="http://www.inkscape.org/namespaces/inkscape" xmlns:sodipodi="http://sodipodi.sourceforge.net/DTD/sodipodi-0.dtd" xmlns:xlink="http://www.w3.org/1999/xlink" xmlns:ns1="http://www.inkscape.org/namespaces/inkscape" xmlns:sketch="http://www.bohemiancoding.com/sketch/ns">
  <defs><style type='text/css'></style>
    <linearGradient x1="0" y1="0.5" x2="1" y2="0.5" id="linearGradientSjlzbv9784">
      <stop offset="0%" stop-color="#ffffff"></stop>
      <stop offset="0%" stop-color="#ffffff"></stop>
      <stop offset="100%" stop-color="#ffffff"></stop>
    </linearGradient>
  </defs>
  <g elementtype="background">
    <rect x="0" y="0" width="600" height="600" fill="url('#linearGradientSjlzbv9784')"></rect>
  </g>
  <g transform="matrix(1.3174,0,0,1.3174,-67.3808,43.3983)">
    <g transform="matrix(1.0919,0,0,1.0919,277.9171,92.2439)">
      <svg width="109.98291662726878" height="60.58790981787327" viewBox="-5,18.643888888888892,109.98291662726878,60.58790981787327">
        <defs>
          <linearGradient x1="0" y1="0.5" x2="1" y2="0.5" id="linearGradientSjlzbv978a">
            <stop offset="0%" stop-color="#f2af58"></stop>
            <stop offset="100%" stop-color="#f2af58"></stop>
          </linearGradient>
        </defs>
        <g></g>
        <g></g>
        <g></g>
        <g>
          <path fill-rule="evenodd" clip-rule="evenodd" d="M97.203,23.803c1.623-0.358,1.783,0,2.676,0    c1.065,4.443-6.337,3.594-9.363,4.904c-4.988,2.16-7.924,8.331-12.932,12.039c-4.34,3.213-8.203,3.499-12.93,5.796    c0.978,3.153-1.787,6.267-0.893,9.811c0.382,1.511,2.831,2.725,3.567,4.457c0.968,2.278,1.314,7.47,0.892,9.365    c-0.483,2.167-3.589,4.679-5.351,3.121s1.994-3.411,1.784-5.798c-0.327-3.702-4.068-5.97-8.473-5.795    c-2.84,3.966-6.625,13.352-10.702,11.146c-4.076-2.205,5.969-5.857,4.905-10.701c-1.145-5.212-8.918-5.332-14.268-3.121    c-0.881,2.956-1.114,7.891-2.675,11.148c-1.542,3.216-5.076,6.305-8.026,1.783c0.285-1.946,3.411-1.049,4.013-2.675    c0.821-2.598,0.987-5.852,0.892-9.365c-4.556-0.649-7.357,3.479-10.256,5.351c-1.693,1.095-3.779,1.52-5.35,2.677    c-2.075,1.525-4.593,7.286-7.135,4.903c-2.542-2.382,9.593-8.859,10.701-13.822c1.333-5.97-3.607-8.703-7.134-9.363    C6.541,48.801,0.698,51.492,0,47.435c0.003-2.228,0.913-3.463,2.253-5.636c2.789-3.514,2.499-2.426,2.206-6.848    c5.597,3.476,16.272,4.822,24.97,4.013c7.047-0.656,13.807-3.133,22.294-2.229c4.406,0.469,8.524,3.149,12.483,3.567    c12.397,1.307,14.436-7.614,20.512-12.039C88.613,25.424,95.581,24.16,97.203,23.803z M4.839,43.105    c-0.492,0-0.89,0.398-0.89,0.89c0,0.492,0.398,0.891,0.89,0.891c0.491,0,0.89-0.398,0.89-0.891    C5.729,43.504,5.331,43.105,4.839,43.105z" fill="url('#linearGradientSjlzbv978a')"></path>
        </g>
      </svg>
    </g>
    <g transform="matrix(1.0919,0,0,1.0919,168.9171,70.2333)">
      <svg width="109.99728693557414" height="82.24144756432662" viewBox="-4.998322449946265,11.930275593097068,109.99728693557414,82.24144756432662">
        <defs>
          <linearGradient x1="0" y1="0.5" x2="1" y2="0.5" id="linearGradientSjlzbv978g">
            <stop offset="0%" stop-color="#faec50"></stop>
            <stop offset="100%" stop-color="#faec50"></stop>
          </linearGradient>
        </defs>
        <g></g>
        <g></g>
        <g></g>
        <g>
          <path d="M98.55,26.94c-0.333-0.167-2.786-0.749-4.823-1.163c-2.037-0.415-1.871-1.623-2.245-2.289   c-0.374-0.666-0.941-1.661-2.272-2.051c-0.739-0.213-2.082-0.593-3.638-0.799c-0.106-0.081-0.225-0.154-0.354-0.209   c-0.521-0.226-0.823-0.55-2.322-0.536c-1.368,0.012-2.755,1.005-3.029,1.429c0,0,0.013,0.011,0.015,0.012   c-1.986,1.142-3.293,3.263-3.949,3.986c-0.832,0.913-3.16,3.825-5.488,5.821c-2.328,1.993-3.494,3.407-5.489,4.24   c-1.992,0.833-4.073,0.666-5.987,1.514c-1.911,0.849-4.739,1.148-8.646,0.649c-3.908-0.501-10.727-0.917-14.469-1.247   c-3.744-0.335-8.646,1.173-8.898,1.247c-0.68,0.197-1.053,0.026-2.662-0.527c-1.607-0.556-8.481-2.44-12.196-4.047   c-3.713-1.607-6.208-6.319-7.982-10.423c-0.924-2.131-1.95-3.559-2.722-4.439c-0.716-0.814-1.021-1.279-1.215-1.159   c-0.194,0.119-0.24,0.241-0.082,1.526c0.123,0.993,0.022,1.511,0.41,4.414c0.887,6.654,5.271,11.192,7.822,13.13   c2.551,1.942,13.307,5.437,13.804,5.712c0.499,0.277,0.555,0.887,0.444,1.72c-0.111,0.831-0.444,1.219-0.887,1.608   c-0.444,0.386-1.274,3.214-1.441,4.268c-0.166,1.05,0.222,4.766,0.776,5.504c0.555,0.743,0.887,3.2,1.164,4.639   c0.277,1.439,0.61,4.324,0.057,4.988c-0.556,0.665-0.444,1.055-0.942,1.499c-0.5,0.444-1.289,3.562-1.528,4.805   c-0.242,1.241-0.247,1.735-0.247,1.735s-0.499,0.777-0.998,1.22c-0.498,0.444-0.333,0.776-0.277,1.109   c0.056,0.332-0.054,1.83,0,2.327c0.056,0.499,0.555,1.662,0.611,2.327c0.055,0.665,0.831,4.712,0.942,5.214   c0.11,0.498,0.611,1.661,0.611,2.16c0,0.497,0.941,1.385,1.664,1.886c0.72,0.499,1.772,0.499,2.826,0.331   c1.053-0.168,0.832-0.498,1.332-0.773c0.499-0.28,0.555-0.613,0.387-1.11c-0.166-0.5-1.496-1.72-2.218-1.773   c-0.72-0.056-1.519-0.556-1.783-0.989c-0.252-0.418,0.07-2.448,0.07-2.448s0.882,0.331,1.658,0.221   c0.776-0.11,0.832-0.499,1.275-0.555s0.555-0.497,0.665-0.996c0.111-0.501-0.166-1.109-0.941-1.389   c-0.776-0.276-1.831-0.33-2.386-0.664c-0.555-0.332-0.11-1.884,0-2.437c0.11-0.556,1.774-3.606,2.772-4.604   c0.999-1,2.329-2.494,3.105-3.992c0.776-1.497,1.607-1.773,2.938-4.879c1.331-3.105,2.495-6.374,2.826-6.763   c0.333-0.39,3.771,0.444,6.543,0.557c2.771,0.108,7.262,1.606,12.307,3.491c5.044,1.888,10.866,2.161,11.475,2.329   c0.611,0.164,0.457,0.119,0.657,0.578c0.194,0.443,0.063,1.915-0.046,2.523c-0.112,0.61,0.331,1.275,0.277,1.995   c-0.056,0.725,0.444,6.487,0.61,8.764c0.166,2.271,0.108,4.821,0.666,5.374c0.552,0.556,0.884,2.055,1.164,2.773   c0.275,0.72,0.387,2.051,2.05,3.159c1.664,1.109,2.997,0.39,4.438,0.168c1.44-0.222,1.438-0.832,0.828-1.941   c-0.609-1.108-2.161-1.498-2.771-1.773c-0.61-0.276-1.164-1.996-1.164-1.996s1.164,0.112,1.663,0   c0.498-0.11,0.665-0.498,1.054-0.332c0.388,0.168,0.83-0.332,0.998-0.718c0.165-0.391,0-1.109-0.223-1.5   c-0.222-0.388-1.164-1.054-1.663-1.163c-0.497-0.112-1.441-0.167-1.718-0.501c-0.277-0.331-0.724-1.938-0.777-2.381   c-0.056-0.444,0.166-1.888,0.276-2.883c0.111-1,0.501-5.712,0.723-6.931c0.221-1.218,0.775-2.439,1.108-3.271   c0.332-0.83,1.052-1.884,1.496-2.215c0.444-0.335,1.886-2.108,2.606-3.606c0.72-1.494,1.387-3.102,1.607-3.381   c0.221-0.278,0.887-0.998,1.219-2.16c0.332-1.167-0.124-2.691,0.082-3.188c0.21-0.499,1.083-1.331,1.79-2.163   c0.706-0.83,1.082-1.704,1.621-2.578c0.539-0.871,1.08-2.993,1.206-3.448c0.124-0.459,1.496-2.372,2.122-3.536   c0.621-1.163,2.325-1.621,3.614-1.163c1.288,0.457,2.788,0.251,3.119,0c0.333-0.251,1.361-0.575,1.66-0.536   c0.482,0.063,0.792,0.039,1.623-0.422c0.831-0.456,1.955-2.159,2.328-2.867c0.374-0.707,0.208-1.414,0.208-1.414   s0.309,0.181,0.584-1.057C100.218,27.368,98.882,27.108,98.55,26.94z" fill="url('#linearGradientSjlzbv978g')"></path>
        </g>
      </svg>
    </g>
    <g transform="matrix(1.9385,0,0,1.7632,64.2231,0.048)">
      <svg width="221.4460989966725" height="220.87542772184247" viewBox="-5.004301291019374,-5.005077493884249,221.4460989966725,220.87542772184247" class="thumb">
        <defs>
          <linearGradient x1="0" y1="0.5" x2="1" y2="0.5" id="linearGradientSjlzbv978m">
            <stop offset="0%" stop-color="#faec50"></stop>
            <stop offset="100%" stop-color="#faec50"></stop>
          </linearGradient>
        </defs>
        <g></g>
        <g></g>
        <g></g>
        <g></g>
        <g>
          <path d="M137.82,210.87a31.87,31.87,0,0,1-5.39-.46,152.9,152.9,0,0,0-49.86,0A30.84,30.84,0,0,1,51.93,196.6c-8.64-13.32-21.33-25.38-37.69-35.83A30.69,30.69,0,0,1,.32,131.36,237.66,237.66,0,0,0,.2,79.23a30.78,30.78,0,0,1,12.57-28.5,166.62,166.62,0,0,0,38.17-38A30.61,30.61,0,0,1,80.3.33a180.63,180.63,0,0,0,49.83.7h0a31.19,31.19,0,0,1,30.65,14.71c8.29,13.59,20.47,25.36,36.18,35a30.49,30.49,0,0,1,14,31.34c-3.11,18.29-3.28,34.55-.54,49.71a30.83,30.83,0,0,1-12,30.59,165.47,165.47,0,0,0-35.89,36A30.4,30.4,0,0,1,137.82,210.87Zm-30-4.52a147.81,147.81,0,0,1,24.94,2.09,28.57,28.57,0,0,0,28.15-11.26,167.45,167.45,0,0,1,36.32-36.43,28.84,28.84,0,0,0,11.25-28.62c-2.79-15.39-2.61-31.87.53-50.4a28.5,28.5,0,0,0-13.1-29.3c-16-9.79-28.38-21.78-36.84-35.65A29.19,29.19,0,0,0,130.39,3l-.13-1,.13,1A182.6,182.6,0,0,1,80,2.31,28.61,28.61,0,0,0,52.56,13.93,168.64,168.64,0,0,1,13.93,52.35,28.78,28.78,0,0,0,2.18,79a239.67,239.67,0,0,1,.13,52.57,28.7,28.7,0,0,0,13,27.51c16.61,10.61,29.5,22.86,38.3,36.43a28.84,28.84,0,0,0,28.65,12.91A162.68,162.68,0,0,1,107.82,206.36Z" style="" fill="url('#linearGradientSjlzbv978m')"></path>
        </g>
      </svg>
    </g>
    <g transform="matrix(0.7047,0,0,0.7047,149.0301,128.7572)">
      <svg width="368" height="235">
        <defs>
          <linearGradient x1="0" y1="0.5" x2="1" y2="0.5" id="linearGradientSjlzbv97810">
            <stop offset="0%" stop-color="#489d2d"></stop>
            <stop offset="100%" stop-color="#489d2d"></stop>
          </linearGradient>
        </defs>
        <g transform="matrix(1,0,0,1,0,131.25)">
          <path d="M77.40-22.30L77.40-22.30Q78.70-22.30 79.45-21.10L79.45-21.10L79.45-21.10Q80.20-19.90 80.20-17.80L80.20-17.80L80.20-17.80Q80.20-13.90 78.30-11.60L78.30-11.60L78.30-11.60Q72.70-4.90 67.45-2.20L67.45-2.20L67.45-2.20Q62.20 0.50 54.80 0.50L54.80 0.50L54.80 0.50Q49.60 0.50 45.20-0.80L45.20-0.80L45.20-0.80Q40.80-2.10 34.50-4.70L34.50-4.70L34.50-4.70Q28.80-7.20 23.50-8.80L23.50-8.80L23.50-8.80Q18.40 0.50 8.20 0.50L8.20 0.50L8.20 0.50Q2.60 0.50-0.75-2.05L-0.75-2.05L-0.75-2.05Q-4.10-4.60-4.10-8.60L-4.10-8.60L-4.10-8.60Q-4.10-13.50 0.60-16.75L0.60-16.75L0.60-16.75Q5.30-20 13.10-20L13.10-20L14.40-20L16.20-49.10L16.20-49.10Q16.80-59.10 19.80-65.60L19.80-65.60L19.80-65.60Q22.80-72.10 28.10-76.70L28.10-76.70L28.10-76.70Q32.70-80.70 38.60-82.75L38.60-82.75L38.60-82.75Q44.50-84.80 51.10-84.80L51.10-84.80L51.10-84.80Q61.90-84.80 67.70-79.20L67.70-79.20L67.70-79.20Q73.50-73.60 73.50-64.60L73.50-64.60L73.50-64.60Q73.50-58.50 71.30-54.75L71.30-54.75L71.30-54.75Q69.10-51 65.20-51L65.20-51L65.20-51Q62.40-51 60.80-52.35L60.80-52.35L60.80-52.35Q59.20-53.70 59.20-56.20L59.20-56.20L59.20-56.20Q59.20-57.10 59.60-59.50L59.60-59.50L59.60-59.50Q60.20-62.30 60.20-64.50L60.20-64.50L60.20-64.50Q60.20-68.70 57.75-71.15L57.75-71.15L57.75-71.15Q55.30-73.60 50.30-73.60L50.30-73.60L50.30-73.60Q41.50-73.60 36.70-67.85L36.70-67.85L36.70-67.85Q31.90-62.10 30.60-49.80L30.60-49.80L28.30-27.10L28.30-27.10Q27.80-22.30 27-18.80L27-18.80L27-18.80Q33.40-17.70 43-15.30L43-15.30L43-15.30Q48.60-13.90 51.60-13.30L51.60-13.30L51.60-13.30Q54.60-12.70 56.90-12.70L56.90-12.70L56.90-12.70Q62.70-12.70 66.85-14.65L66.85-14.65L66.85-14.65Q71-16.60 74.70-20.90L74.70-20.90L74.70-20.90Q75.90-22.30 77.40-22.30L77.40-22.30ZM85.20-53.20L85.20-53.20Q81-53.20 78.90-55.15L78.90-55.15L78.90-55.15Q76.80-57.10 76.80-60.60L76.80-60.60L76.80-60.60Q76.80-64.10 79.55-66.45L79.55-66.45L79.55-66.45Q82.30-68.80 86.40-68.80L86.40-68.80L86.40-68.80Q90.10-68.80 92.40-67L92.40-67L92.40-67Q94.70-65.20 94.70-61.90L94.70-61.90L94.70-61.90Q94.70-57.90 92.10-55.55L92.10-55.55L92.10-55.55Q89.50-53.20 85.20-53.20L85.20-53.20ZM84.40 0.50L84.40 0.50Q77.90 0.50 74.95-4.10L74.95-4.10L74.95-4.10Q72-8.70 72-16.30L72-16.30L72-16.30Q72-20.80 73.15-27.85L73.15-27.85L73.15-27.85Q74.30-34.90 76.10-41L76.10-41L76.10-41Q77-44.20 78.50-45.40L78.50-45.40L78.50-45.40Q80-46.60 83.30-46.60L83.30-46.60L83.30-46.60Q88.40-46.60 88.40-43.20L88.40-43.20L88.40-43.20Q88.40-40.70 86.50-31.60L86.50-31.60L86.50-31.60Q84.10-20.60 84.10-16.70L84.10-16.70L84.10-16.70Q84.10-13.70 84.90-12.10L84.90-12.10L84.90-12.10Q85.70-10.50 87.60-10.50L87.60-10.50L87.60-10.50Q89.40-10.50 92.10-13L92.10-13L92.10-13Q94.80-15.50 99.30-20.90L99.30-20.90L99.30-20.90Q100.50-22.30 102-22.30L102-22.30L102-22.30Q103.30-22.30 104.05-21.10L104.05-21.10L104.05-21.10Q104.80-19.90 104.80-17.80L104.80-17.80L104.80-17.80Q104.80-13.80 102.90-11.60L102.90-11.60L102.90-11.60Q93 0.50 84.40 0.50L84.40 0.50ZM103.80 0.50L103.80 0.50Q100 0.50 98.45-3.50L98.45-3.50L98.45-3.50Q96.90-7.50 96.90-16.30L96.90-16.30L96.90-16.30Q96.90-29.30 100.60-41L100.60-41L100.60-41Q101.50-43.90 103.55-45.25L103.55-45.25L103.55-45.25Q105.60-46.60 109.30-46.60L109.30-46.60L109.30-46.60Q111.30-46.60 112.10-46.10L112.10-46.10L112.10-46.10Q112.90-45.60 112.90-44.20L112.90-44.20L112.90-44.20Q112.90-42.60 111.40-37L111.40-37L111.40-37Q110.40-33 109.80-30.05L109.80-30.05L109.80-30.05Q109.20-27.10 108.80-22.70L108.80-22.70L108.80-22.70Q111.50-30.50 115.25-35.90L115.25-35.90L115.25-35.90Q119-41.30 122.95-43.95L122.95-43.95L122.95-43.95Q126.90-46.60 130.40-46.60L130.40-46.60L130.40-46.60Q133.90-46.60 135.35-45L135.35-45L135.35-45Q136.80-43.40 136.80-40.10L136.80-40.10L136.80-40.10Q136.80-36.90 134.90-28.50L134.90-28.50L134.90-28.50Q134.10-24.90 133.80-23.10L133.80-23.10L133.80-23.10Q138.80-35.40 144.90-41L144.90-41L144.90-41Q151-46.60 156.30-46.60L156.30-46.60L156.30-46.60Q162.80-46.60 162.80-40.10L162.80-40.10L162.80-40.10Q162.80-36.20 160.60-26L160.60-26L160.60-26Q158.70-17.30 158.70-14.50L158.70-14.50L158.70-14.50Q158.70-10.50 161.60-10.50L161.60-10.50L161.60-10.50Q163.60-10.50 166.35-12.95L166.35-12.95L166.35-12.95Q169.10-15.40 173.70-20.90L173.70-20.90L173.70-20.90Q174.90-22.30 176.40-22.30L176.40-22.30L176.40-22.30Q177.70-22.30 178.45-21.10L178.45-21.10L178.45-21.10Q179.20-19.90 179.20-17.80L179.20-17.80L179.20-17.80Q179.20-13.80 177.30-11.60L177.30-11.60L177.30-11.60Q173-6.30 168.05-2.90L168.05-2.90L168.05-2.90Q163.10 0.50 156.80 0.50L156.80 0.50L156.80 0.50Q151.70 0.50 149.10-2.45L149.10-2.45L149.10-2.45Q146.50-5.40 146.50-11L146.50-11L146.50-11Q146.50-13.80 147.90-21L147.90-21L147.90-21Q149.20-27.30 149.20-29.70L149.20-29.70L149.20-29.70Q149.20-31.30 148.10-31.30L148.10-31.30L148.10-31.30Q146.80-31.30 144.40-27.95L144.40-27.95L144.40-27.95Q142-24.60 139.60-19.10L139.60-19.10L139.60-19.10Q137.20-13.60 135.70-7.50L135.70-7.50L135.70-7.50Q134.60-2.70 133.15-1.10L133.15-1.10L133.15-1.10Q131.70 0.50 128.50 0.50L128.50 0.50L128.50 0.50Q125.20 0.50 123.55-2.65L123.55-2.65L123.55-2.65Q121.90-5.80 121.90-10.30L121.90-10.30L121.90-10.30Q121.90-14.10 122.90-21.30L122.90-21.30L122.90-21.30Q123.70-27.70 123.70-29.70L123.70-29.70L123.70-29.70Q123.70-31.30 122.60-31.30L122.60-31.30L122.60-31.30Q121.10-31.30 118.80-27.70L118.80-27.70L118.80-27.70Q116.50-24.10 114.35-18.50L114.35-18.50L114.35-18.50Q112.20-12.90 110.90-7.50L110.90-7.50L110.90-7.50Q109.80-2.80 108.35-1.15L108.35-1.15L108.35-1.15Q106.90 0.50 103.80 0.50L103.80 0.50ZM215.70-22.30L215.70-22.30Q217-22.30 217.75-21.10L217.75-21.10L217.75-21.10Q218.50-19.90 218.50-17.80L218.50-17.80L218.50-17.80Q218.50-13.80 216.60-11.60L216.60-11.60L216.60-11.60Q212.90-7.10 206.15-3.30L206.15-3.30L206.15-3.30Q199.40 0.50 191.70 0.50L191.70 0.50L191.70 0.50Q181.20 0.50 175.40-5.20L175.40-5.20L175.40-5.20Q169.60-10.90 169.60-20.80L169.60-20.80L169.60-20.80Q169.60-27.70 172.50-33.65L172.50-33.65L172.50-33.65Q175.40-39.60 180.55-43.10L180.55-43.10L180.55-43.10Q185.70-46.60 192.20-46.60L192.20-46.60L192.20-46.60Q198-46.60 201.50-43.15L201.50-43.15L201.50-43.15Q205-39.70 205-33.80L205-33.80L205-33.80Q205-26.90 200.05-21.95L200.05-21.95L200.05-21.95Q195.10-17 183.30-14.10L183.30-14.10L183.30-14.10Q185.80-9.50 192.80-9.50L192.80-9.50L192.80-9.50Q197.30-9.50 203.05-12.65L203.05-12.65L203.05-12.65Q208.80-15.80 213-20.90L213-20.90L213-20.90Q214.20-22.30 215.70-22.30L215.70-22.30ZM190.50-36.80L190.50-36.80Q186.80-36.80 184.25-32.50L184.25-32.50L184.25-32.50Q181.70-28.20 181.70-22.10L181.70-22.10L181.70-21.90L181.70-21.90Q187.60-23.30 191-26.10L191-26.10L191-26.10Q194.40-28.90 194.40-32.60L194.40-32.60L194.40-32.60Q194.40-34.50 193.35-35.65L193.35-35.65L193.35-35.65Q192.30-36.80 190.50-36.80L190.50-36.80ZM217.50 0.50L217.50 0.50Q213.70 0.50 212.15-3.50L212.15-3.50L212.15-3.50Q210.60-7.50 210.60-16.30L210.60-16.30L210.60-16.30Q210.60-29.30 214.30-41L214.30-41L214.30-41Q215.20-43.90 217.25-45.25L217.25-45.25L217.25-45.25Q219.30-46.60 223.00-46.60L223.00-46.60L223.00-46.60Q225.00-46.60 225.80-46.10L225.80-46.10L225.80-46.10Q226.60-45.60 226.60-44.20L226.60-44.20L226.60-44.20Q226.60-42.60 225.10-37L225.10-37L225.10-37Q224.10-33 223.50-30L223.50-30L223.50-30Q222.90-27 222.50-22.60L222.50-22.60L222.50-22.60Q225.80-31.20 229.90-36.60L229.90-36.60L229.90-36.60Q234.00-42 237.95-44.30L237.95-44.30L237.95-44.30Q241.90-46.60 245.20-46.60L245.20-46.60L245.20-46.60Q251.70-46.60 251.70-40.10L251.70-40.10L251.70-40.10Q251.70-38.80 250.80-33.80L250.80-33.80L250.80-33.80Q250.00-29.80 250.00-28.80L250.00-28.80L250.00-28.80Q250.00-25.30 252.50-25.30L252.50-25.30L252.50-25.30Q255.30-25.30 259.70-29.70L259.70-29.70L259.70-29.70Q261-31 262.40-31L262.40-31L262.40-31Q263.70-31 264.45-29.85L264.45-29.85L264.45-29.85Q265.20-28.70 265.20-26.80L265.20-26.80L265.20-26.80Q265.20-23.10 263.20-21L263.20-21L263.20-21Q260.40-18.10 256.65-16.05L256.65-16.05L256.65-16.05Q252.90-14 248.70-14L248.70-14L248.70-14Q243.40-14 240.65-16.70L240.65-16.70L240.65-16.70Q237.90-19.40 237.90-24L237.90-24L237.90-24Q237.90-25.50 238.20-27L238.20-27L238.20-27Q238.40-29 238.40-29.70L238.40-29.70L238.40-29.70Q238.40-31.30 237.30-31.30L237.30-31.30L237.30-31.30Q235.80-31.30 233.35-27.95L233.35-27.95L233.35-27.95Q230.90-24.60 228.50-19.10L228.50-19.10L228.50-19.10Q226.10-13.60 224.60-7.50L224.60-7.50L224.60-7.50Q223.50-2.80 222.05-1.15L222.05-1.15L222.05-1.15Q220.60 0.50 217.50 0.50L217.50 0.50ZM269-53.20L269-53.20Q264.80-53.20 262.70-55.15L262.70-55.15L262.70-55.15Q260.60-57.10 260.60-60.60L260.60-60.60L260.60-60.60Q260.60-64.10 263.35-66.45L263.35-66.45L263.35-66.45Q266.10-68.80 270.20-68.80L270.20-68.80L270.20-68.80Q273.90-68.80 276.20-67L276.20-67L276.20-67Q278.50-65.20 278.50-61.90L278.50-61.90L278.50-61.90Q278.50-57.90 275.90-55.55L275.90-55.55L275.90-55.55Q273.30-53.20 269-53.20L269-53.20ZM268.20 0.50L268.20 0.50Q261.70 0.50 258.75-4.10L258.75-4.10L258.75-4.10Q255.80-8.70 255.80-16.30L255.80-16.30L255.80-16.30Q255.80-20.80 256.95-27.85L256.95-27.85L256.95-27.85Q258.10-34.90 259.90-41L259.90-41L259.90-41Q260.80-44.20 262.30-45.40L262.30-45.40L262.30-45.40Q263.80-46.60 267.10-46.60L267.10-46.60L267.10-46.60Q272.20-46.60 272.20-43.20L272.20-43.20L272.20-43.20Q272.20-40.70 270.30-31.60L270.30-31.60L270.30-31.60Q267.90-20.60 267.90-16.70L267.90-16.70L267.90-16.70Q267.90-13.70 268.70-12.10L268.70-12.10L268.70-12.10Q269.50-10.50 271.40-10.50L271.40-10.50L271.40-10.50Q273.20-10.50 275.90-13L275.90-13L275.90-13Q278.60-15.50 283.10-20.90L283.10-20.90L283.10-20.90Q284.30-22.30 285.80-22.30L285.80-22.30L285.80-22.30Q287.10-22.30 287.85-21.10L287.85-21.10L287.85-21.10Q288.60-19.90 288.60-17.80L288.60-17.80L288.60-17.80Q288.60-13.80 286.70-11.60L286.70-11.60L286.70-11.60Q276.80 0.50 268.20 0.50L268.20 0.50ZM299.60 0.50L299.60 0.50Q289.80 0.50 284.35-5.05L284.35-5.05L284.35-5.05Q278.90-10.60 278.90-19.70L278.90-19.70L278.90-19.70Q278.90-27.80 282.10-33.90L282.10-33.90L282.10-33.90Q285.30-40 290.40-43.30L290.40-43.30L290.40-43.30Q295.50-46.60 301.10-46.60L301.10-46.60L301.10-46.60Q306.60-46.60 309.65-43.35L309.65-43.35L309.65-43.35Q312.70-40.10 312.70-35L312.70-35L312.70-35Q312.70-30.80 310.85-27.90L310.85-27.90L310.85-27.90Q309.00-25 306.00-25L306.00-25L306.00-25Q304.10-25 302.95-25.90L302.95-25.90L302.95-25.90Q301.80-26.80 301.80-28.40L301.80-28.40L301.80-28.40Q301.80-29.10 302.00-30L302.00-30L302.00-30Q302.20-30.90 302.30-31.30L302.30-31.30L302.30-31.30Q302.80-32.80 302.80-34.10L302.80-34.10L302.80-34.10Q302.80-35.40 302.15-36.10L302.15-36.10L302.15-36.10Q301.50-36.80 300.30-36.80L300.30-36.80L300.30-36.80Q298.00-36.80 296.00-34.75L296.00-34.75L296.00-34.75Q294.00-32.70 292.80-29.20L292.80-29.20L292.80-29.20Q291.60-25.70 291.60-21.50L291.60-21.50L291.60-21.50Q291.60-9.90 301.70-9.90L301.70-9.90L301.70-9.90Q305.80-9.90 310.55-12.65L310.55-12.65L310.55-12.65Q315.30-15.40 319.90-20.90L319.90-20.90L319.90-20.90Q321.10-22.30 322.60-22.30L322.60-22.30L322.60-22.30Q323.90-22.30 324.65-21.10L324.65-21.10L324.65-21.10Q325.40-19.90 325.40-17.80L325.40-17.80L325.40-17.80Q325.40-14 323.50-11.60L323.50-11.60L323.50-11.60Q318.80-5.80 312.25-2.65L312.25-2.65L312.25-2.65Q305.70 0.50 299.60 0.50L299.60 0.50ZM375.10-22.30L375.10-22.30Q376.40-22.30 377.15-21.10L377.15-21.10L377.15-21.10Q377.90-19.90 377.90-17.80L377.90-17.80L377.90-17.80Q377.90-13.80 376.00-11.60L376.00-11.60L376.00-11.60Q371.50-6.10 366.90-2.80L366.90-2.80L366.90-2.80Q362.30 0.50 356.00 0.50L356.00 0.50L356.00 0.50Q348.30 0.50 343.60-3.90L343.60-3.90L343.60-3.90Q338.90-8.30 338.90-15.60L338.90-15.60L338.90-15.60Q338.90-19.50 342.90-21.20L342.90-21.20L342.90-21.20Q347.30-23.10 349.20-25.25L349.20-25.25L349.20-25.25Q351.10-27.40 351.10-30.50L351.10-30.50L351.10-30.50Q351.10-32.30 350.35-33.20L350.35-33.20L350.35-33.20Q349.60-34.10 348.50-34.10L348.50-34.10L348.50-34.10Q345.80-34.10 342.55-30.20L342.55-30.20L342.55-30.20Q339.30-26.30 336.50-20.15L336.50-20.15L336.50-20.15Q333.70-14 332.10-7.50L332.10-7.50L332.10-7.50Q331.00-2.80 329.55-1.15L329.55-1.15L329.55-1.15Q328.10 0.50 325.00 0.50L325.00 0.50L325.00 0.50Q321.90 0.50 320.45-1.75L320.45-1.75L320.45-1.75Q319.00-4 318.50-8.70L318.50-8.70L318.50-8.70Q318.00-13.40 318.00-22.50L318.00-22.50L318.00-22.50Q318.00-37.90 321.15-54.60L321.15-54.60L321.15-54.60Q324.30-71.30 330.45-82.65L330.45-82.65L330.45-82.65Q336.60-94 345.20-94L345.20-94L345.20-94Q349.80-94 352.65-90.05L352.65-90.05L352.65-90.05Q355.50-86.10 355.50-79.80L355.50-79.80L355.50-79.80Q355.50-69.70 349.60-58.85L349.60-58.85L349.60-58.85Q343.70-48 330.40-33.50L330.40-33.50L330.40-33.50Q330.10-28.30 330.10-22.80L330.10-22.80L330.10-22.80Q334.90-35.30 341.10-40.95L341.10-40.95L341.10-40.95Q347.30-46.60 352.70-46.60L352.70-46.60L352.70-46.60Q357.70-46.60 360.75-43.20L360.75-43.20L360.75-43.20Q363.80-39.80 363.80-34.80L363.80-34.80L363.80-34.80Q363.80-29.30 361.00-24.70L361.00-24.70L361.00-24.70Q358.20-20.10 351.40-16.50L351.40-16.50L351.40-16.50Q351.80-13.80 353.85-12.15L353.85-12.15L353.85-12.15Q355.90-10.50 358.80-10.50L358.80-10.50L358.80-10.50Q361.90-10.50 364.80-12.90L364.80-12.90L364.80-12.90Q367.70-15.30 372.40-20.90L372.40-20.90L372.40-20.90Q373.60-22.30 375.10-22.30L375.10-22.30ZM343.10-84.10L343.10-84.10Q341.30-84.10 339.10-78.95L339.10-78.95L339.10-78.95Q336.90-73.80 334.85-65.05L334.85-65.05L334.85-65.05Q332.80-56.30 331.50-46L331.50-46L331.50-46Q337.70-53.30 341.75-61.90L341.75-61.90L341.75-61.90Q345.80-70.50 345.80-77.50L345.80-77.50L345.80-77.50Q345.80-80.70 345.10-82.40L345.10-82.40L345.10-82.40Q344.40-84.10 343.10-84.10L343.10-84.10Z" fill="url('#linearGradientSjlzbv97810')"></path>
        </g>
        <path fill="none" style=""></path>
      </svg>
    </g>
    <g transform="matrix(0.4203,0,0,0.4203,120.0766,240.3419)">
      <svg width="770" height="196">
        <defs>
          <linearGradient x1="0" y1="0.5" x2="1" y2="0.5" id="linearGradientSjlzbv97813">
            <stop offset="0%" stop-color="#489d2d"></stop>
            <stop offset="100%" stop-color="#489d2d"></stop>
          </linearGradient>
        </defs>
        <g transform="matrix(1,0,0,1,0,102)">
          <path d="M68.99 0L52.69 0L47.51-16.99L21.48-16.99L16.31 0L0 0L25.20-71.68L43.70-71.68L68.99 0ZM25.29-29.69L43.90-29.69L43.90-29.69Q36.72-52.78 35.82-55.81L35.82-55.81L35.82-55.81Q34.91-58.84 34.52-60.60L34.52-60.60L34.52-60.60Q32.91-54.35 25.29-29.69L25.29-29.69ZM127.20-35.60L127.20 0L112.30 0L112.30-31.88L112.30-31.88Q112.30-37.79 110.21-40.75L110.21-40.75L110.21-40.75Q108.11-43.70 103.52-43.70L103.52-43.70L103.52-43.70Q97.27-43.70 94.48-39.53L94.48-39.53L94.48-39.53Q91.70-35.35 91.70-25.68L91.70-25.68L91.70 0L76.81 0L76.81-54.59L88.18-54.59L90.19-47.61L91.02-47.61L91.02-47.61Q93.51-51.56 97.88-53.59L97.88-53.59L97.88-53.59Q102.25-55.62 107.81-55.62L107.81-55.62L107.81-55.62Q117.33-55.62 122.27-50.46L122.27-50.46L122.27-50.46Q127.20-45.31 127.20-35.60L127.20-35.60ZM141.89-68.70L141.89-68.70L141.89-68.70Q141.89-75.98 150-75.98L150-75.98L150-75.98Q158.11-75.98 158.11-68.70L158.11-68.70L158.11-68.70Q158.11-65.23 156.08-63.31L156.08-63.31L156.08-63.31Q154.05-61.38 150-61.38L150-61.38L150-61.38Q141.89-61.38 141.89-68.70ZM157.42-54.59L157.42 0L142.53 0L142.53-54.59L157.42-54.59ZM221.92-27.39L221.92 0L207.03 0L207.03-31.88L207.03-31.88Q207.03-37.79 205.05-40.75L205.05-40.75L205.05-40.75Q203.08-43.70 198.83-43.70L198.83-43.70L198.83-43.70Q193.12-43.70 190.53-39.50L190.53-39.50L190.53-39.50Q187.94-35.30 187.94-25.68L187.94-25.68L187.94 0L173.05 0L173.05-54.59L184.42-54.59L186.43-47.61L187.26-47.61L187.26-47.61Q189.45-51.37 193.60-53.49L193.60-53.49L193.60-53.49Q197.75-55.62 203.13-55.62L203.13-55.62L203.13-55.62Q215.38-55.62 219.73-47.61L219.73-47.61L221.04-47.61L221.04-47.61Q223.24-51.42 227.51-53.52L227.51-53.52L227.51-53.52Q231.79-55.62 237.16-55.62L237.16-55.62L237.16-55.62Q246.44-55.62 251.20-50.85L251.20-50.85L251.20-50.85Q255.96-46.09 255.96-35.60L255.96-35.60L255.96 0L241.02 0L241.02-31.88L241.02-31.88Q241.02-37.79 239.04-40.75L239.04-40.75L239.04-40.75Q237.06-43.70 232.81-43.70L232.81-43.70L232.81-43.70Q227.34-43.70 224.63-39.79L224.63-39.79L224.63-39.79Q221.92-35.89 221.92-27.39L221.92-27.39ZM316.31 0L305.91 0L303.03-7.42L302.64-7.42L302.64-7.42Q298.88-2.69 294.90-0.85L294.90-0.85L294.90-0.85Q290.92 0.98 284.52 0.98L284.52 0.98L284.52 0.98Q276.66 0.98 272.14-3.52L272.14-3.52L272.14-3.52Q267.63-8.01 267.63-16.31L267.63-16.31L267.63-16.31Q267.63-25 273.71-29.13L273.71-29.13L273.71-29.13Q279.79-33.25 292.04-33.69L292.04-33.69L301.51-33.98L301.51-36.38L301.51-36.38Q301.51-44.68 293.02-44.68L293.02-44.68L293.02-44.68Q286.47-44.68 277.64-40.72L277.64-40.72L272.71-50.78L272.71-50.78Q282.13-55.71 293.60-55.71L293.60-55.71L293.60-55.71Q304.59-55.71 310.45-50.93L310.45-50.93L310.45-50.93Q316.31-46.14 316.31-36.38L316.31-36.38L316.31 0ZM301.51-20.80L301.51-25.29L295.75-25.10L295.75-25.10Q289.26-24.90 286.08-22.75L286.08-22.75L286.08-22.75Q282.91-20.61 282.91-16.21L282.91-16.21L282.91-16.21Q282.91-9.91 290.14-9.91L290.14-9.91L290.14-9.91Q295.31-9.91 298.41-12.89L298.41-12.89L298.41-12.89Q301.51-15.87 301.51-20.80L301.51-20.80ZM346.53-75.98L346.53 0L331.64 0L331.64-75.98L346.53-75.98ZM477.00-71.39L458.84 0L441.60 0L431.93-37.50L431.93-37.50Q431.40-39.50 430.10-45.78L430.10-45.78L430.10-45.78Q428.81-52.05 428.61-54.20L428.61-54.20L428.61-54.20Q428.32-51.56 427.15-45.73L427.15-45.73L427.15-45.73Q425.98-39.89 425.34-37.40L425.34-37.40L415.72 0L398.54 0L380.32-71.39L395.21-71.39L404.35-32.42L404.35-32.42Q406.74-21.63 407.81-13.72L407.81-13.72L407.81-13.72Q408.11-16.50 409.16-22.34L409.16-22.34L409.16-22.34Q410.21-28.17 411.13-31.40L411.13-31.40L421.53-71.39L435.84-71.39L446.24-31.40L446.24-31.40Q446.92-28.71 447.95-23.19L447.95-23.19L447.95-23.19Q448.97-17.68 449.51-13.72L449.51-13.72L449.51-13.72Q450-17.53 451.07-23.22L451.07-23.22L451.07-23.22Q452.15-28.91 453.03-32.42L453.03-32.42L462.11-71.39L477.00-71.39ZM507.42-45.02L507.42-45.02L507.42-45.02Q502.69-45.02 500-42.02L500-42.02L500-42.02Q497.31-39.01 496.92-33.50L496.92-33.50L517.82-33.50L517.82-33.50Q517.72-39.01 514.94-42.02L514.94-42.02L514.94-42.02Q512.16-45.02 507.42-45.02ZM509.52 0.98L509.52 0.98L509.52 0.98Q496.34 0.98 488.92-6.30L488.92-6.30L488.92-6.30Q481.49-13.57 481.49-26.90L481.49-26.90L481.49-26.90Q481.49-40.63 488.35-48.12L488.35-48.12L488.35-48.12Q495.21-55.62 507.32-55.62L507.32-55.62L507.32-55.62Q518.90-55.62 525.34-49.02L525.34-49.02L525.34-49.02Q531.79-42.43 531.79-30.81L531.79-30.81L531.79-23.58L496.58-23.58L496.58-23.58Q496.83-17.24 500.34-13.67L500.34-13.67L500.34-13.67Q503.86-10.11 510.21-10.11L510.21-10.11L510.21-10.11Q515.14-10.11 519.53-11.13L519.53-11.13L519.53-11.13Q523.93-12.16 528.71-14.40L528.71-14.40L528.71-2.88L528.71-2.88Q524.80-0.93 520.36 0.02L520.36 0.02L520.36 0.02Q515.92 0.98 509.52 0.98ZM558.79-75.98L558.79 0L543.90 0L543.90-75.98L558.79-75.98ZM604.59-54.59L604.59-43.41L591.70-43.41L591.70 0L576.81 0L576.81-43.41L568.60-43.41L568.60-50.59L576.81-54.59L576.81-58.59L576.81-58.59Q576.81-67.92 581.40-72.22L581.40-72.22L581.40-72.22Q585.99-76.51 596.09-76.51L596.09-76.51L596.09-76.51Q603.81-76.51 609.81-74.22L609.81-74.22L606.01-63.28L606.01-63.28Q601.51-64.70 597.71-64.70L597.71-64.70L597.71-64.70Q594.53-64.70 593.12-62.82L593.12-62.82L593.12-62.82Q591.70-60.94 591.70-58.01L591.70-58.01L591.70-54.59L604.59-54.59ZM658.20 0L647.80 0L644.92-7.42L644.53-7.42L644.53-7.42Q640.77-2.69 636.79-0.85L636.79-0.85L636.79-0.85Q632.81 0.98 626.42 0.98L626.42 0.98L626.42 0.98Q618.55 0.98 614.04-3.52L614.04-3.52L614.04-3.52Q609.52-8.01 609.52-16.31L609.52-16.31L609.52-16.31Q609.52-25 615.60-29.13L615.60-29.13L615.60-29.13Q621.68-33.25 633.94-33.69L633.94-33.69L643.41-33.98L643.41-36.38L643.41-36.38Q643.41-44.68 634.91-44.68L634.91-44.68L634.91-44.68Q628.37-44.68 619.53-40.72L619.53-40.72L614.60-50.78L614.60-50.78Q624.02-55.71 635.50-55.71L635.50-55.71L635.50-55.71Q646.48-55.71 652.34-50.93L652.34-50.93L652.34-50.93Q658.20-46.14 658.20-36.38L658.20-36.38L658.20 0ZM643.41-20.80L643.41-25.29L637.65-25.10L637.65-25.10Q631.15-24.90 627.98-22.75L627.98-22.75L627.98-22.75Q624.80-20.61 624.80-16.21L624.80-16.21L624.80-16.21Q624.80-9.91 632.03-9.91L632.03-9.91L632.03-9.91Q637.21-9.91 640.31-12.89L640.31-12.89L640.31-12.89Q643.41-15.87 643.41-20.80L643.41-20.80ZM704.00-55.62L704.00-55.62L704.00-55.62Q707.03-55.62 709.03-55.18L709.03-55.18L707.91-41.21L707.91-41.21Q706.10-41.70 703.52-41.70L703.52-41.70L703.52-41.70Q696.39-41.70 692.41-38.04L692.41-38.04L692.41-38.04Q688.43-34.38 688.43-27.78L688.43-27.78L688.43 0L673.54 0L673.54-54.59L684.81-54.59L687.01-45.41L687.74-45.41L687.74-45.41Q690.28-50 694.60-52.81L694.60-52.81L694.60-52.81Q698.93-55.62 704.00-55.62ZM741.55-45.02L741.55-45.02L741.55-45.02Q736.82-45.02 734.13-42.02L734.13-42.02L734.13-42.02Q731.45-39.01 731.05-33.50L731.05-33.50L751.95-33.50L751.95-33.50Q751.86-39.01 749.07-42.02L749.07-42.02L749.07-42.02Q746.29-45.02 741.55-45.02ZM743.65 0.98L743.65 0.98L743.65 0.98Q730.47 0.98 723.05-6.30L723.05-6.30L723.05-6.30Q715.63-13.57 715.63-26.90L715.63-26.90L715.63-26.90Q715.63-40.63 722.49-48.12L722.49-48.12L722.49-48.12Q729.35-55.62 741.46-55.62L741.46-55.62L741.46-55.62Q753.03-55.62 759.47-49.02L759.47-49.02L759.47-49.02Q765.92-42.43 765.92-30.81L765.92-30.81L765.92-23.58L730.71-23.58L730.71-23.58Q730.96-17.24 734.47-13.67L734.47-13.67L734.47-13.67Q737.99-10.11 744.34-10.11L744.34-10.11L744.34-10.11Q749.27-10.11 753.66-11.13L753.66-11.13L753.66-11.13Q758.06-12.16 762.84-14.40L762.84-14.40L762.84-2.88L762.84-2.88Q758.94-0.93 754.49 0.02L754.49 0.02L754.49 0.02Q750.05 0.98 743.65 0.98Z" fill="url('#linearGradientSjlzbv97813')"></path>
        </g>
        <path fill="none" style=""></path>
      </svg>
    </g>
  </g>
</svg>